<svg width="16" height="16" viewBox="0 0 16 16" fill="none" xmlns="http://www.w3.org/2000/svg">
<path opacity="0.2" d="M11.5 13.3295C10.9313 13.658 10.3035 13.8713 9.65247 13.9572C9.00139 14.043 8.33977 13.9998 7.70541 13.8299C7.07105 13.66 6.47636 13.3668 5.95532 12.9671C5.43428 12.5673 4.9971 12.0689 4.66873 11.5001L2.16873 7.16765C2.00558 6.8807 1.96256 6.54087 2.04904 6.22232C2.13553 5.90376 2.3445 5.63235 2.63036 5.4673C2.91622 5.30226 3.25576 5.25698 3.57488 5.34135C3.894 5.42572 4.16679 5.63289 4.33373 5.91765L3.44248 4.37515C3.27672 4.08797 3.23183 3.7467 3.31768 3.42642C3.40354 3.10615 3.61311 2.83309 3.90029 2.66733C4.18747 2.50157 4.52874 2.45668 4.84901 2.54254C5.16929 2.6284 5.44234 2.83797 5.6081 3.12515L6.0406 3.87515C5.87746 3.5882 5.83443 3.24837 5.92092 2.92982C6.0074 2.61126 6.21638 2.33985 6.50224 2.1748C6.78809 2.00976 7.12763 1.96448 7.44675 2.04885C7.76587 2.13322 8.03866 2.34039 8.2056 2.62515L10.0806 5.87515C9.91484 5.58747 9.87015 5.24573 9.95636 4.9251C10.0426 4.60447 10.2526 4.33122 10.5403 4.16546C10.828 3.9997 11.1697 3.95501 11.4903 4.04122C11.811 4.12742 12.0842 4.33747 12.25 4.62515L13.3319 6.50015C13.9945 7.64871 14.1738 9.01347 13.8302 10.2942C13.4867 11.5749 12.6485 12.6668 11.5 13.3295Z" fill="#FFAE00"/>
<path d="M13.7606 6.25003L12.6787 4.37503C12.4467 3.97322 12.0646 3.68001 11.6164 3.55988C11.1682 3.43975 10.6907 3.50252 10.2887 3.73441C10.0646 3.86392 9.87242 4.04204 9.72625 4.25566L8.6375 2.37503C8.48383 2.10926 8.26295 1.88858 7.99703 1.73516C7.7311 1.58174 7.4295 1.50098 7.1225 1.50098C6.81549 1.50098 6.51389 1.58174 6.24797 1.73516C5.98205 1.88858 5.76116 2.10926 5.6075 2.37503C5.28792 2.1234 4.89066 1.99094 4.48401 2.00044C4.07737 2.00994 3.68673 2.16079 3.37924 2.42708C3.07176 2.69336 2.86664 3.05844 2.79914 3.45956C2.73164 3.86068 2.80598 4.27278 3.00937 4.62503L3.10875 4.79753C2.85016 4.81765 2.5994 4.89561 2.375 5.02566C1.97312 5.25782 1.67992 5.6401 1.5599 6.08843C1.43988 6.53675 1.50286 7.0144 1.735 7.41628L4.235 11.7488C4.59468 12.3754 5.07499 12.9245 5.64817 13.3643C6.22136 13.8042 6.87604 14.126 7.57437 14.3113C8.04164 14.4361 8.52323 14.4991 9.00687 14.4988C9.97153 14.4971 10.9188 14.2418 11.7536 13.7584C12.5884 13.275 13.2814 12.5806 13.763 11.7447C14.2446 10.9089 14.4979 9.9611 14.4975 8.99644C14.4971 8.03178 14.243 7.0842 13.7606 6.24878V6.25003ZM13.3444 10.165C13.1139 11.0245 12.6337 11.7964 11.9646 12.383C11.2955 12.9697 10.4675 13.3448 9.58522 13.4609C8.70297 13.577 7.80609 13.4289 7.00797 13.0354C6.20985 12.6419 5.54631 12.0206 5.10125 11.25L2.60125 6.91753C2.50608 6.74557 2.48222 6.54312 2.5348 6.35374C2.58738 6.16436 2.7122 6.00318 2.8824 5.9049C3.0526 5.80661 3.25459 5.77906 3.44489 5.82818C3.6352 5.87729 3.79862 5.99915 3.9 6.16753L5.10187 8.25003C5.13373 8.30871 5.17703 8.36041 5.22919 8.40209C5.28136 8.44376 5.34134 8.47456 5.40561 8.49268C5.46987 8.5108 5.53712 8.51586 5.60337 8.50756C5.66962 8.49927 5.73354 8.47779 5.79136 8.4444C5.84917 8.411 5.89972 8.36636 5.94 8.31312C5.98029 8.25987 6.0095 8.1991 6.02592 8.13438C6.04234 8.06966 6.04563 8.00231 6.03559 7.9363C6.02556 7.87028 6.0024 7.80695 5.9675 7.75003L3.875 4.12503C3.8236 4.03967 3.78973 3.94492 3.77537 3.84632C3.761 3.74772 3.76643 3.64724 3.79133 3.55076C3.81623 3.45428 3.86011 3.36373 3.9204 3.28439C3.98069 3.20506 4.05618 3.13854 4.14247 3.08871C4.22876 3.03888 4.32411 3.00674 4.42296 2.99418C4.5218 2.98161 4.62216 2.98887 4.71818 3.01553C4.81419 3.04218 4.90392 3.0877 4.98214 3.14943C5.06036 3.21116 5.1255 3.28785 5.17375 3.37503L7.125 6.75003C7.15686 6.80871 7.20015 6.86041 7.25232 6.90209C7.30448 6.94376 7.36447 6.97456 7.42873 6.99268C7.493 7.0108 7.56024 7.01586 7.62649 7.00756C7.69274 6.99927 7.75666 6.97779 7.81448 6.9444C7.8723 6.911 7.92284 6.86636 7.96313 6.81312C8.00341 6.75987 8.03263 6.6991 8.04904 6.63438C8.06546 6.56966 8.06875 6.50231 8.05872 6.4363C8.04868 6.37028 8.02553 6.30695 7.99062 6.25003L6.47312 3.62503C6.42173 3.53967 6.38786 3.44492 6.37349 3.34632C6.35913 3.24772 6.36455 3.14724 6.38945 3.05076C6.41436 2.95428 6.45823 2.86373 6.51852 2.78439C6.57881 2.70506 6.65431 2.63854 6.74059 2.58871C6.82688 2.53888 6.92223 2.50674 7.02108 2.49418C7.11993 2.48161 7.22029 2.48887 7.3163 2.51553C7.41231 2.54218 7.50205 2.5877 7.58027 2.64943C7.65849 2.71116 7.72362 2.78785 7.77187 2.87503L9.86062 6.49378C9.3741 6.98783 9.07373 7.63515 9.01061 8.32565C8.94748 9.01616 9.1255 9.70721 9.51437 10.2813C9.58896 10.391 9.70409 10.4666 9.83443 10.4915C9.96477 10.5163 10.0996 10.4884 10.2094 10.4138C10.3191 10.3392 10.3947 10.2241 10.4196 10.0937C10.4444 9.96339 10.4165 9.82852 10.3419 9.71878C10.0547 9.29352 9.942 8.77415 10.027 8.26811C10.1121 7.76207 10.3884 7.30808 10.7987 7.00003C10.8966 6.9267 10.9641 6.82007 10.9887 6.7003C11.0132 6.58053 10.993 6.45592 10.9319 6.35003L10.5144 5.62503C10.4613 5.53966 10.4259 5.44448 10.4103 5.34515C10.3947 5.24582 10.3993 5.14438 10.4237 5.04685C10.4481 4.94931 10.4919 4.85768 10.5524 4.77741C10.6129 4.69713 10.689 4.62984 10.7761 4.57955C10.8631 4.52925 10.9594 4.49697 11.0592 4.48463C11.159 4.47228 11.2602 4.48013 11.3569 4.50769C11.4536 4.53526 11.5437 4.58198 11.622 4.64509C11.7003 4.70819 11.7651 4.78639 11.8125 4.87503L12.8944 6.75003C13.1912 7.2611 13.3838 7.82592 13.4611 8.41187C13.5383 8.99781 13.4986 9.59326 13.3444 10.1638V10.165ZM11.5156 1.98191C11.5493 1.85387 11.6323 1.7444 11.7465 1.6775C11.8608 1.6106 11.9969 1.59173 12.125 1.62503C12.6025 1.75089 13.0503 1.9704 13.4422 2.27083C13.8342 2.57126 14.1625 2.9466 14.4081 3.37503L14.4287 3.41066C14.4637 3.46758 14.4868 3.53091 14.4968 3.59692C14.5069 3.66293 14.5036 3.73028 14.4872 3.795C14.4708 3.85972 14.4415 3.9205 14.4013 3.97374C14.361 4.02699 14.3104 4.07163 14.2526 4.10502C14.1948 4.13842 14.1309 4.1599 14.0646 4.16819C13.9984 4.17648 13.9311 4.17142 13.8669 4.1533C13.8026 4.13519 13.7426 4.10438 13.6904 4.06271C13.6383 4.02104 13.595 3.96934 13.5631 3.91066L13.5425 3.87503C13.3622 3.56105 13.1213 3.28607 12.8337 3.0661C12.5462 2.84614 12.2177 2.68558 11.8675 2.59378C11.7398 2.5591 11.6311 2.47522 11.5652 2.36054C11.4992 2.24585 11.4814 2.1097 11.5156 1.98191ZM5.05562 14.8125C4.97353 14.9166 4.8535 14.9838 4.72189 14.9994C4.59028 15.015 4.45787 14.9777 4.35375 14.8957C3.60595 14.3049 2.978 13.5766 2.50375 12.75C2.47092 12.6932 2.44961 12.6304 2.44105 12.5653C2.43248 12.5001 2.43683 12.434 2.45383 12.3705C2.47083 12.3071 2.50017 12.2476 2.54015 12.1955C2.58014 12.1435 2.62999 12.0997 2.68687 12.0669C2.74375 12.0341 2.80654 12.0128 2.87165 12.0042C2.93677 11.9956 3.00293 12 3.06636 12.017C3.1298 12.034 3.18926 12.0633 3.24136 12.1033C3.29345 12.1433 3.33717 12.1932 3.37 12.25C3.78104 12.9656 4.32495 13.596 4.9725 14.1075C5.02446 14.1482 5.06787 14.1988 5.1002 14.2563C5.13253 14.3138 5.15316 14.3772 5.16088 14.4427C5.16861 14.5083 5.16329 14.5747 5.14522 14.6382C5.12716 14.7016 5.0967 14.7609 5.05562 14.8125Z" fill="#FFAE00"/>
</svg>
